# xmcd
#
# Track frame offsets: 
#        150
#        6377
#        35829
#        71104
#        76363
#        100674
#        110384
#        132647
#        142030
#        172262
#
# Disc length: 2806 seconds
#
# Revision: 0
# Processed by: cddbd v1.5.2PL0 Copyright (c) Steve Scherf et al.
# Submitted via: ExactAudioCopy v0.95b4
#
DISCID=950af40a
DTITLE=Judas Priest  - Nostradamus [CD 2)
DYEAR=1900
DGENRE=
TTITLE0=Solitude
TTITLE1=Exiled
TTITLE2=Alone
TTITLE3=Shadows In The Flame
TTITLE4=Visions
TTITLE5=Hope
TTITLE6=New Beginnings
TTITLE7=Calm Before the Storm
TTITLE8=Nostradamus
TTITLE9=Future Of Mankind
EXTD=
EXTT0=
EXTT1=
EXTT2=
EXTT3=
EXTT4=
EXTT5=
EXTT6=
EXTT7=
EXTT8=
EXTT9=
PLAYORDER=
